<?xml version="1.0" encoding="utf-8"?>
<svg viewBox="0 0 170 163" xmlns="http://www.w3.org/2000/svg">
  <path d="M 60.357 7.138 L 120.134 7.138 C 130.097 7.138 137.743 10.598 143.072 17.516 C 148.41 24.434 151.078 33.002 151.078 43.22 C 151.078 51.783 149.174 59.126 145.365 65.25 C 142.826 69.344 139.114 72.577 134.229 74.947 C 141.653 77.453 147.116 81.751 150.617 87.842 C 154.119 93.943 155.87 101.604 155.87 110.824 C 155.87 118.332 154.624 125.086 152.134 131.085 C 149.643 137.085 146.234 141.831 141.908 145.324 C 139.231 147.501 135.192 149.083 129.79 150.07 C 122.601 151.386 117.829 152.044 115.476 152.044 L 60.357 152.044 L 60.357 7.138 Z M 92.574 63.974 L 106.451 63.974 C 111.433 63.974 114.902 62.772 116.859 60.368 C 118.808 57.964 119.782 54.488 119.782 49.94 C 119.782 45.721 118.808 42.426 116.859 40.056 C 114.902 37.674 111.506 36.484 106.67 36.484 L 92.574 36.484 L 92.574 63.974 Z M 92.574 120.912 L 108.853 120.912 C 114.352 120.912 118.23 119.546 120.486 116.812 C 122.742 114.068 123.87 110.393 123.87 105.789 C 123.87 101.502 122.754 98.054 120.522 95.446 C 118.29 92.849 114.376 91.55 108.78 91.55 L 92.574 91.55 L 92.574 120.912 Z" style="fill: rgb(74, 74, 74); white-space: pre;"/>
  <path d="M 72.303 126.915 L 40.024 126.915 L 35.59 150.591 L 6.637 150.591 L 41.09 7.153 L 71.991 7.153 L 106.445 150.591 L 76.802 150.591 L 72.303 126.915 Z M 66.362 95.897 L 56.223 44.335 L 46.159 95.897 L 66.362 95.897 Z" style="fill: rgb(52, 52, 52); paint-order: fill; stroke-miterlimit: 8; stroke-width: 0.12417px; white-space: pre;"/>
</svg>